<svg xmlns="http://www.w3.org/2000/svg" xmlns:xlink="http://www.w3.org/1999/xlink" viewBox="0 0 515.73 539.39"><defs><symbol id="Homely" data-name="Homely" viewBox="0 0 515.73 539.39"><path class="cls-1" d="M3.51,164.72a8,8,0,0,0,4.54,14.67H44.67a13.44,13.44,0,0,1,13.44,13.44V526a13.43,13.43,0,0,0,13.43,13.43h86.57V58.73Z"/><path class="cls-1" d="M269.84,3.56a20.46,20.46,0,0,0-23.07,0L178.11,50.39v489h21.62a13.6,13.6,0,0,0,13.38-13.81v-92c0-11.68,9.17-21.15,20.49-21.15h48.16c11.24,0,20.35,9.4,20.35,21v92.19a13.6,13.6,0,0,0,13.37,13.81h21.63V49.44Z"/><path class="cls-1" d="M511.92,163.51l-59.81-40.85V58.11a12.73,12.73,0,0,0-12.72-12.72H413.82a12.72,12.72,0,0,0-12.71,12.72V87.83l-44-30V539.39h87.56A13.43,13.43,0,0,0,458.11,526V192.83a13.43,13.43,0,0,1,13.43-13.44H507A8.7,8.7,0,0,0,511.92,163.51Z"/></symbol></defs><title>homely-logo</title><g id="Layer_2" data-name="Layer 2"><g id="Layer_5" data-name="Layer 5"><use width="515.73" height="539.39" xlink:href="#Homely"/></g></g></svg>