<svg xmlns="http://www.w3.org/2000/svg" viewBox="0 0 99.61 99.61"><title>itemOptions</title><g id="Layer_2" data-name="Layer 2"><g id="Layer_1-2" data-name="Layer 1"><g id="Symbols"><g id="Regular-M"><path d="M49.8,99.61A50.15,50.15,0,0,0,99.61,49.8C99.61,22.61,77,0,49.76,0S0,22.61,0,49.8A50.18,50.18,0,0,0,49.8,99.61ZM32.62,49.85a7.51,7.51,0,0,1-7.33,7.28,7.3,7.3,0,0,1,0-14.6A7.55,7.55,0,0,1,32.62,49.85Zm24.36,0a7.23,7.23,0,1,1-7.22-7.32A7.42,7.42,0,0,1,57,49.85Zm24.47,0a7.26,7.26,0,1,1-7.23-7.32A7.39,7.39,0,0,1,81.45,49.85Z"/></g></g></g></g></svg>